<svg width="28" height="28" viewBox="0 0 28 28" fill="none" xmlns="http://www.w3.org/2000/svg">
<path d="M8.66649 12.6665C8.40278 12.6665 8.14499 12.7447 7.92573 12.8912C7.70646 13.0377 7.53556 13.246 7.43465 13.4896C7.33373 13.7332 7.30733 14.0013 7.35877 14.26C7.41022 14.5186 7.53721 14.7562 7.72368 14.9426C7.91015 15.1291 8.14773 15.2561 8.40637 15.3076C8.66501 15.359 8.9331 15.3326 9.17673 15.2317C9.42037 15.1308 9.6286 14.9599 9.77511 14.7406C9.92162 14.5213 9.99982 14.2635 9.99982 13.9998C9.99982 13.6462 9.85934 13.3071 9.6093 13.057C9.35925 12.807 9.02011 12.6665 8.66649 12.6665ZM13.9998 12.6665C13.7361 12.6665 13.4783 12.7447 13.2591 12.8912C13.0398 13.0377 12.8689 13.246 12.768 13.4896C12.6671 13.7332 12.6407 14.0013 12.6921 14.26C12.7436 14.5186 12.8705 14.7562 13.057 14.9426C13.2435 15.1291 13.4811 15.2561 13.7397 15.3076C13.9983 15.359 14.2664 15.3326 14.5101 15.2317C14.7537 15.1308 14.9619 14.9599 15.1084 14.7406C15.255 14.5213 15.3332 14.2635 15.3332 13.9998C15.3332 13.6462 15.1927 13.3071 14.9426 13.057C14.6926 12.807 14.3534 12.6665 13.9998 12.6665ZM19.3332 12.6665C19.0694 12.6665 18.8117 12.7447 18.5924 12.8912C18.3731 13.0377 18.2022 13.246 18.1013 13.4896C18.0004 13.7332 17.974 14.0013 18.0254 14.26C18.0769 14.5186 18.2039 14.7562 18.3903 14.9426C18.5768 15.1291 18.8144 15.2561 19.073 15.3076C19.3317 15.359 19.5998 15.3326 19.8434 15.2317C20.087 15.1308 20.2953 14.9599 20.4418 14.7406C20.5883 14.5213 20.6665 14.2635 20.6665 13.9998C20.6665 13.6462 20.526 13.3071 20.276 13.057C20.0259 12.807 19.6868 12.6665 19.3332 12.6665ZM13.9998 0.666504C12.2489 0.666504 10.515 1.01138 8.89737 1.68144C7.2797 2.35151 5.80984 3.33363 4.57173 4.57175C2.07125 7.07223 0.666488 10.4636 0.666488 13.9998C0.654832 17.0787 1.72088 20.0646 3.67982 22.4398L1.01315 25.1065C0.828145 25.294 0.702816 25.5321 0.652984 25.7908C0.603152 26.0494 0.631049 26.317 0.733155 26.5598C0.843898 26.7997 1.02343 27.0013 1.24895 27.139C1.47447 27.2767 1.73582 27.3443 1.99982 27.3332H13.9998C17.536 27.3332 20.9274 25.9284 23.4279 23.4279C25.9284 20.9274 27.3332 17.5361 27.3332 13.9998C27.3332 10.4636 25.9284 7.07223 23.4279 4.57175C20.9274 2.07126 17.536 0.666504 13.9998 0.666504ZM13.9998 24.6665H5.21315L6.45315 23.4265C6.57914 23.303 6.67937 23.1558 6.74803 22.9933C6.81669 22.8308 6.85242 22.6562 6.85315 22.4798C6.84814 22.1281 6.70437 21.7927 6.45315 21.5465C4.70727 19.8026 3.62005 17.5072 3.37674 15.0516C3.13343 12.5959 3.74908 10.1318 5.11879 8.0792C6.4885 6.02655 8.52754 4.51232 10.8885 3.79447C13.2495 3.07662 15.7863 3.19958 18.0668 4.14239C20.3473 5.0852 22.2303 6.78954 23.3951 8.96502C24.5599 11.1405 24.9343 13.6526 24.4547 16.0732C23.975 18.4938 22.6709 20.6732 20.7645 22.2402C18.8582 23.8071 16.4675 24.6646 13.9998 24.6665Z" fill="#904EE2"/>
</svg>
